# xmcd
#
# Track frame offsets: 
#        150
#        10339
#        23231
#        34649
#        46499
#        58747
#        72553
#        86780
#        97658
#        109501
#        121532
#        131935
#        144014
#        156177
#        167816
#        178649
#        191072
#        203862
#        213602
#        226737
#        238152
#        251548
#        261875
#        273935
#        285921
#
# Disc length: 3986 seconds
#
# Revision: 0
# Processed by: cddbd v1.5.2PL0 Copyright (c) Steve Scherf et al.
# Submitted via: ExactAudioCopy v0.99pb5
#
DISCID=5e0f9019
DTITLE=Various Artist - The R&B Years (4CD) CD2
DYEAR=1900
DGENRE=R&B
TTITLE0=The Du Droppers - I Wanna Know
TTITLE1=Rufus Thomas - Bear Cat
TTITLE2=Fats Domino - Going To The River
TTITLE3=Wille Mabon - I'm Mad
TTITLE4=Percy Mayfield - Lost Mind
TTITLE5=5 Royales - Help Me Somebody
TTITLE6=Buddy and Ella Johnson - Hittin' On Me
TTITLE7=Joe Houston - Cornbread And Cabbages
TTITLE8=Stick McGhee - Whiskey, Women And Loaded Dice
TTITLE9=The Treniers - Rockin' Is Our Bizness
TTITLE10=Jimmy Nelson - Married Men Like Sport
TTITLE11=Jimmy McCracklin - She Felt Too Good
TTITLE12=Bif Maybelle - Way Back Home
TTITLE13=Mitzi Mars - I'm Glad
TTITLE14=Champion Jack Dupree - Shake Baby Shake
TTITLE15=Little Richard - Ain't That Good News
TTITLE16=B.B. King - Please Love
TTITLE17=T-Bone Walker - Party Girl
TTITLE18=Little Johnny Jones - Dirty By The Dozen
TTITLE19=Ruth Brown - Wild Wild Young men
TTITLE20=Jimmy Coe - After Hour Joint
TTITLE21=The Du Droppers - I Found Out
TTITLE22=Piano Red - Your Mouth's Got A Hole In It 
TTITLE23=Roy Milton - Early On The Morning
TTITLE24=Johnny Ace - The Clock
EXTD=
EXTT0=
EXTT1=
EXTT2=
EXTT3=
EXTT4=
EXTT5=
EXTT6=
EXTT7=
EXTT8=
EXTT9=
EXTT10=
EXTT11=
EXTT12=
EXTT13=
EXTT14=
EXTT15=
EXTT16=
EXTT17=
EXTT18=
EXTT19=
EXTT20=
EXTT21=
EXTT22=
EXTT23=
EXTT24=
PLAYORDER=
